# xmcd
#
# Track frame offsets:
#	150
#	19705
#	40915
#	62238
#	96319
#	119996
#	140074
#	159806
#	180200
#	202956
#	225111
#	255184
#
# Disc length: 3709 seconds
#
# Revision: 2
# Processed by: cddbd v1.5.2PL0 Copyright (c) Steve Scherf et al.
# Submitted via: audiograbber 1.83.01
#
DISCID=940e7b0c
DTITLE=Tarja - Act I (Live) [2CD] [CD 1)
DYEAR=2012
DGENRE=Rock
TTITLE0=Anteroom Of Death (Live 2012)
TTITLE1=My Little Phoenix (Live 2012)
TTITLE2=Dark Star (Live 2012)
TTITLE3=Naiad (Live 2012)
TTITLE4=Falling Awake (Live 2012)
TTITLE5=I Walk Alone (Live 2012)
TTITLE6=Little Lies (Live 2012)
TTITLE7=Into The Sun (Live 2012)
TTITLE8=Nemo (Live 2012)
TTITLE9=Never Enough (Live 2012)
TTITLE10=Still Of The Night (Live 2012)
TTITLE11=In For A Kill (Live 2012)
EXTD=MARO\n
EXTT0=
EXTT1=
EXTT2=
EXTT3=
EXTT4=
EXTT5=
EXTT6=
EXTT7=
EXTT8=
EXTT9=
EXTT10=
EXTT11=
PLAYORDER=
